<?xml version="1.0" encoding="utf-8"?>
<!-- Generator: Adobe Illustrator 24.1.2, SVG Export Plug-In . SVG Version: 6.00 Build 0)  -->
<svg version="1.1" id="Layer_1" xmlns="http://www.w3.org/2000/svg" xmlns:xlink="http://www.w3.org/1999/xlink" x="0px" y="0px"
	 viewBox="0 0 22.5 11.6" style="enable-background:new 0 0 22.5 11.6;" xml:space="preserve">
<style type="text/css">
	.st0{fill:#ED8585;}
</style>
<g>
	<path d="M-112.5-1.6c-0.3,0.5-0.7,0.8-1.2,1.1s-1.1,0.4-1.7,0.4c-0.7,0-1.2-0.1-1.7-0.4c-0.5-0.3-0.9-0.6-1.2-1.1s-0.4-1-0.4-1.6
		c0-0.6,0.1-1.1,0.4-1.6c0.3-0.5,0.7-0.8,1.2-1.1s1.1-0.4,1.7-0.4c0.7,0,1.2,0.1,1.7,0.4s0.9,0.6,1.2,1.1s0.4,1,0.4,1.6
		C-112.1-2.6-112.2-2.1-112.5-1.6z M-115.8,2.1h7v1.8h-9.1V0.4h2.1V2.1z M-116.3-2.2c0.2,0.2,0.6,0.4,0.9,0.4c0.4,0,0.7-0.1,0.9-0.4
		c0.2-0.2,0.4-0.6,0.4-1s-0.1-0.8-0.4-1c-0.2-0.2-0.6-0.4-0.9-0.4c-0.4,0-0.7,0.1-0.9,0.4s-0.4,0.6-0.4,1S-116.6-2.4-116.3-2.2z
		 M-107.8-4.3v2h-1.2v3.6h-2v-7.6h2v2H-107.8z"/>
	<path d="M-101.1-0.4c-0.4,0-0.9,0.1-1.4,0.1h-4.2v-5.9h2v4.4h2.3c1.1,0,1.9-0.1,2.4-0.2v1.5C-100.3-0.5-100.7-0.5-101.1-0.4z
		 M-97,2c0,1.4-1.6,2-4.7,2c-3.1,0-4.7-0.7-4.7-2s1.6-2,4.7-2C-98.5,0-97,0.7-97,2z M-99.8,2.4c0.5-0.1,0.7-0.2,0.7-0.4
		s-0.2-0.3-0.7-0.4c-0.5-0.1-1.1-0.1-1.8-0.1c-0.7,0-1.3,0-1.8,0.1s-0.7,0.2-0.7,0.4s0.2,0.3,0.7,0.4s1.1,0.1,1.8,0.1
		C-100.9,2.6-100.3,2.5-99.8,2.4z M-99.1-2.4h-3.1v-1.5h3.1v-0.5h-3.1v-1.5h3.1v-0.5h2v6.2h-2V-2.4z"/>
	<path d="M-93-0.9c0.2-0.4,0.5-0.7,0.9-1.1c0.4-0.3,0.7-0.6,0.8-0.8S-91-3.2-91-3.4c0-0.3-0.1-0.5-0.3-0.7s-0.5-0.3-0.9-0.3
		c-0.4,0-0.7,0.1-0.9,0.3s-0.3,0.5-0.3,0.8h-2.1c0-0.6,0.1-1.1,0.4-1.5s0.7-0.8,1.2-1.1s1.1-0.4,1.7-0.4c0.7,0,1.3,0.1,1.8,0.4
		c0.5,0.2,0.9,0.6,1.1,1C-89.1-4.5-89-4-89-3.4c0,0.8-0.4,1.6-1.2,2.2c-0.4,0.3-0.7,0.6-0.9,0.9s-0.2,0.6-0.2,0.9h-2
		C-93.3-0.1-93.2-0.5-93-0.9z M-93.2,3.6c-0.2-0.2-0.4-0.5-0.4-0.9s0.1-0.7,0.4-0.9s0.5-0.4,0.9-0.4c0.4,0,0.7,0.1,0.9,0.4
		C-91.1,2-91,2.3-91,2.7s-0.1,0.7-0.4,0.9s-0.5,0.4-0.9,0.4C-92.6,3.9-92.9,3.8-93.2,3.6z"/>
	<path d="M-85.3-0.9c0.2-0.4,0.5-0.7,0.9-1.1c0.4-0.3,0.7-0.6,0.8-0.8s0.3-0.4,0.3-0.7c0-0.3-0.1-0.5-0.3-0.7s-0.5-0.3-0.9-0.3
		c-0.4,0-0.7,0.1-0.9,0.3s-0.3,0.5-0.3,0.8h-2.1c0-0.6,0.1-1.1,0.4-1.5s0.7-0.8,1.2-1.1s1.1-0.4,1.7-0.4c0.7,0,1.3,0.1,1.8,0.4
		c0.5,0.2,0.9,0.6,1.1,1c0.3,0.4,0.4,0.9,0.4,1.5c0,0.8-0.4,1.6-1.2,2.2c-0.4,0.3-0.7,0.6-0.9,0.9c-0.2,0.3-0.2,0.6-0.2,0.9h-2
		C-85.6-0.1-85.5-0.5-85.3-0.9z M-85.5,3.6c-0.2-0.2-0.4-0.5-0.4-0.9s0.1-0.7,0.4-0.9s0.5-0.4,0.9-0.4c0.4,0,0.7,0.1,0.9,0.4
		s0.4,0.5,0.4,0.9s-0.1,0.7-0.4,0.9s-0.5,0.4-0.9,0.4S-85.2,3.8-85.5,3.6z"/>
</g>
<polygon class="st0" points="-37.7,84.2 -130.7,84.2 -130.7,7.2 -37.7,7.2 -66.7,45.7 "/>
<path class="st0" d="M-145.7-13.3"/>
<g>
	<path d="M6,1c0.7,0.6,1,1.4,1,2.2c0,0.9-0.3,1.6-1,2.2C5.3,6.1,4.5,6.4,3.5,6.4c-1,0-1.8-0.3-2.5-0.9C0.3,4.9,0,4.1,0,3.3
		C0,2.4,0.3,1.7,1,1c0.7-0.6,1.5-0.9,2.5-0.9C4.5,0.1,5.3,0.4,6,1z M3.5,9.8h6.9v1.6H2.1c-0.3,0-0.5-0.1-0.7-0.3s-0.3-0.4-0.3-0.7
		V6.8h2.3V9.8z M2.7,2.2C2.5,2.5,2.3,2.8,2.3,3.3c0,0.4,0.1,0.8,0.3,1.1c0.2,0.3,0.5,0.4,0.8,0.4s0.6-0.1,0.9-0.4s0.4-0.7,0.4-1.1
		c0-0.4-0.1-0.8-0.4-1.1S3.9,1.8,3.5,1.8S2.9,1.9,2.7,2.2z M10,0v2.8h1.2v1.6H10v4.4H7.7V0H10z"/>
	<path d="M20.1,6h-6.3c-0.3,0-0.5-0.1-0.7-0.3S12.8,5.3,12.8,5V0.2h2.3v4.1h4.9V4.1h-2.4V2.5h2.4V2.2h-2.4V0.6h2.4V0h2.3v6.7h-1.6
		c0.6,0.3,1,0.6,1.2,0.9C22.4,8,22.5,8.5,22.5,9c0,0.8-0.4,1.4-1.3,1.9c-0.9,0.5-1.9,0.7-3.1,0.7s-2.2-0.2-3.1-0.7s-1.3-1.1-1.3-2
		c0-0.8,0.4-1.4,1.3-1.9c0.9-0.5,1.9-0.7,3.1-0.7c0.5,0,1,0,1.2,0.1s0.5,0.1,0.7,0.1V6z M16.7,8c-0.4,0.2-0.6,0.5-0.6,0.8
		s0.2,0.6,0.6,0.8s0.9,0.3,1.5,0.3c0.6,0,1.1-0.1,1.5-0.3s0.6-0.5,0.6-0.8S20.1,8.3,19.7,8s-0.9-0.3-1.5-0.3
		C17.6,7.7,17.1,7.8,16.7,8z"/>
</g>
</svg>
