<?xml version="1.0" encoding="utf-8"?>
<!-- Generator: Adobe Illustrator 24.1.2, SVG Export Plug-In . SVG Version: 6.00 Build 0)  -->
<svg version="1.1" id="Layer_1" xmlns="http://www.w3.org/2000/svg" xmlns:xlink="http://www.w3.org/1999/xlink" x="0px" y="0px"
	 viewBox="0 0 475.9 52.8" style="enable-background:new 0 0 475.9 52.8;" xml:space="preserve">
<g>
	<path d="M12.4,14.3l4.1,16.8l4.8-16.8h6.8l4.8,16.8L37,14.3h10.2L37,46.6h-6.8l-5.5-14.3l-5.3,14.3h-6.8L2.2,14.3H12.4z"/>
	<path d="M79.8,19.5c2.8,3.7,4.1,8.5,3.8,14.2H62.5c-0.1,1.8,0.4,3.3,1.5,4.5s2.3,1.8,3.8,1.8c1.4,0,2.6-0.4,3.6-1.1
		c1-0.7,1.7-1.5,2-2.3h10.2c-1.2,2.9-3.2,5.4-5.8,7.4c-2.6,2-5.9,3-10,3c-4.8,0-8.5-1.5-11.3-4.4c-2.8-2.9-4.2-6.9-4.2-11.9
		c0-5,1.4-9.1,4.3-12.2c2.9-3.1,6.7-4.6,11.4-4.6C73.1,13.9,77,15.7,79.8,19.5z M64,22.6c-1,1.1-1.5,2.5-1.5,4.1h10.9
		c-0.1-1.8-0.6-3.2-1.5-4.2c-0.9-1-2.3-1.5-4.1-1.5C66.2,20.9,64.9,21.5,64,22.6z"/>
	<path d="M100.5,2.8v14.1c0.6-0.8,1.5-1.6,2.8-2.1c1.3-0.6,2.6-0.9,4-0.9c3.4,0,6.3,1.4,8.7,4.2c2.4,2.8,3.6,7,3.6,12.4
		c0,5.1-1.3,9.2-3.8,12.1s-5.4,4.4-8.7,4.4c-1.6,0-2.9-0.3-4-0.8c-1.1-0.6-2-1.4-2.6-2.7V47H90.3V2.8H100.5z M101.7,23.7
		c-0.8,1.9-1.2,4.2-1.2,7.1c0,2.9,0.5,5.1,1.4,6.7c0.9,1.6,2,2.4,3.1,2.4c1.3,0,2.4-0.8,3.2-2.3c0.8-1.6,1.3-3.8,1.3-6.8
		c0-3.1-0.4-5.5-1.1-7.2c-0.7-1.8-1.9-2.6-3.4-2.6C103.5,20.9,102.4,21.8,101.7,23.7z"/>
	<path d="M178.9,47h-10.2v-3.5c-0.7,1.2-1.5,2.1-2.6,2.7c-1.1,0.6-2.5,0.8-4.2,0.8c-3.3,0-6.3-1.5-8.8-4.4c-2.6-2.9-3.9-7-3.9-12.1
		c0-5.4,1.2-9.5,3.7-12.4s5.4-4.2,8.8-4.2c1.4,0,2.8,0.3,4.1,0.9c1.3,0.6,2.2,1.3,2.8,2.1V2.8h10.2V47z M160.7,23.5
		c-0.8,1.8-1.2,4.2-1.2,7.2c0,3,0.5,5.3,1.4,6.8c0.9,1.6,2,2.3,3.3,2.3c1.2,0,2.3-0.8,3.2-2.4c0.9-1.6,1.4-3.9,1.4-6.7
		c0-2.9-0.4-5.2-1.2-7.1c-0.8-1.9-2-2.8-3.4-2.8C162.6,20.9,161.5,21.8,160.7,23.5z"/>
	<path d="M212.6,19.5c2.8,3.7,4.1,8.5,3.8,14.2h-21.1c-0.1,1.8,0.4,3.3,1.5,4.5s2.3,1.8,3.8,1.8c1.4,0,2.6-0.4,3.6-1.1
		c1-0.7,1.7-1.5,2-2.3h10.2c-1.2,2.9-3.2,5.4-5.8,7.4c-2.6,2-5.9,3-10,3c-4.8,0-8.5-1.5-11.3-4.4c-2.8-2.9-4.2-6.9-4.2-11.9
		c0-5,1.4-9.1,4.3-12.2c2.9-3.1,6.7-4.6,11.4-4.6C205.9,13.9,209.8,15.7,212.6,19.5z M196.8,22.6c-1,1.1-1.5,2.5-1.5,4.1h10.9
		c-0.1-1.8-0.6-3.2-1.5-4.2c-0.9-1-2.3-1.5-4.1-1.5C199.1,20.9,197.8,21.5,196.8,22.6z"/>
	<path d="M246,16.7c2.3,2,3.7,4.6,4,8h-10.2c0-1.2-0.4-2.1-1.3-2.8c-0.8-0.7-1.8-1.1-2.9-1.1c-1.3,0-2.2,0.4-2.9,1.1
		c-0.7,0.7-1,1.5-1,2.2c0,1,0.6,1.8,1.9,2.5c1.3,0.7,3.3,1.4,6.1,2c3.2,0.7,5.7,1.8,7.5,3.4c1.8,1.6,2.7,3.4,2.7,5.3
		c0,2.9-1.2,5.2-3.7,7s-5.9,2.7-10.3,2.7c-4.2,0-7.4-0.9-9.8-2.8c-2.4-1.9-3.9-4.5-4.4-8.1h10.2c0,1.3,0.4,2.3,1.2,2.9
		c0.8,0.6,1.7,0.9,2.7,0.9c1.3,0,2.3-0.2,3-0.7c0.7-0.5,1.1-1.1,1.1-1.8c0-0.8-0.5-1.5-1.5-2.1c-1-0.6-2.8-1.2-5.3-1.7
		c-3.6-0.8-6.4-2-8.3-3.8c-2-1.7-3-3.8-3-6.3c0-2.9,1.3-5.2,3.8-7c2.5-1.8,5.9-2.7,10.2-2.7C240.2,13.8,243.7,14.7,246,16.7z"/>
	<path d="M266.8,2v9.4h-10.2V2H266.8z M266.8,14.3v32.3h-10.2V14.3H266.8z"/>
	<path d="M289.2,15c1.2,0.5,2,1.2,2.5,2.1v-2.9h10.2v23.8c0,4.5-1.4,8.1-4.2,10.7c-2.8,2.6-6.2,4-10.2,4c-3.4,0-6.4-0.8-9-2.4
		c-2.6-1.6-4.2-3.7-4.7-6.4h9.4c0.3,0.5,0.8,0.9,1.5,1.2c0.7,0.4,1.5,0.5,2.5,0.5c1.2,0,2.2-0.5,3.2-1.6c1-1,1.4-2.5,1.4-4.3
		c-0.5,0.8-1.3,1.4-2.5,1.9c-1.2,0.5-2.4,0.7-3.6,0.7c-2.6,0-5.4-1.1-8.3-3.4c-2.9-2.2-4.3-5.8-4.3-10.6c0-4.4,1.2-7.9,3.6-10.5
		c2.4-2.6,5.2-3.8,8.4-3.8C286.6,14.3,288,14.5,289.2,15z M284.4,23.2c-0.8,1.3-1.2,3-1.2,5.2c0,2.5,0.4,4.3,1.3,5.4s1.9,1.7,3,1.7
		c1.1,0,2.1-0.5,2.9-1.6c0.8-1.1,1.3-2.8,1.3-5.2c0-2.5-0.4-4.3-1.3-5.5c-0.8-1.2-1.8-1.8-2.9-1.8C286.3,21.3,285.2,21.9,284.4,23.2
		z"/>
	<path d="M336.6,16.7c1.6,1.6,2.4,3.7,2.4,6.4v23.5h-10.2v-22c0-1.2-0.2-2-0.7-2.5c-0.5-0.5-1.3-0.8-2.4-0.8c-1.3,0-2.6,0.6-3.9,1.9
		c-1.3,1.2-1.9,2.6-1.9,4.1v19.3h-10.2V14.3H320V18c1-1.2,2.4-2.1,4.1-2.7c1.7-0.6,3.5-1,5.5-1C332.6,14.3,335,15.1,336.6,16.7z"/>
	<path d="M395.2,16.7c2.3,2,3.7,4.6,4,8h-10.2c0-1.2-0.4-2.1-1.3-2.8c-0.8-0.7-1.8-1.1-2.9-1.1c-1.3,0-2.2,0.4-2.9,1.1
		c-0.7,0.7-1,1.5-1,2.2c0,1,0.6,1.8,1.9,2.5c1.3,0.7,3.3,1.4,6.1,2c3.2,0.7,5.7,1.8,7.5,3.4c1.8,1.6,2.7,3.4,2.7,5.3
		c0,2.9-1.2,5.2-3.7,7s-5.9,2.7-10.3,2.7c-4.2,0-7.4-0.9-9.8-2.8c-2.4-1.9-3.9-4.5-4.4-8.1h10.2c0,1.3,0.4,2.3,1.2,2.9
		c0.8,0.6,1.7,0.9,2.7,0.9c1.3,0,2.3-0.2,3-0.7c0.7-0.5,1.1-1.1,1.1-1.8c0-0.8-0.5-1.5-1.5-2.1c-1-0.6-2.8-1.2-5.3-1.7
		c-3.6-0.8-6.4-2-8.3-3.8c-2-1.7-3-3.8-3-6.3c0-2.9,1.3-5.2,3.8-7c2.5-1.8,5.9-2.7,10.2-2.7C389.4,13.8,392.9,14.7,395.2,16.7z"/>
	<path d="M414.2,14.3l7,19.9l7-19.9h10.2L425,46.6h-7.2L404,14.3H414.2z"/>
	<path d="M459.3,15c1.2,0.5,2,1.2,2.5,2.1v-2.9H472v23.8c0,4.5-1.4,8.1-4.2,10.7c-2.8,2.6-6.2,4-10.2,4c-3.4,0-6.4-0.8-9-2.4
		c-2.6-1.6-4.2-3.7-4.7-6.4h9.4c0.3,0.5,0.8,0.9,1.5,1.2c0.7,0.4,1.5,0.5,2.5,0.5c1.2,0,2.2-0.5,3.2-1.6c1-1,1.4-2.5,1.4-4.3
		c-0.5,0.8-1.3,1.4-2.5,1.9c-1.2,0.5-2.4,0.7-3.6,0.7c-2.6,0-5.4-1.1-8.3-3.4c-2.9-2.2-4.3-5.8-4.3-10.6c0-4.4,1.2-7.9,3.6-10.5
		c2.4-2.6,5.2-3.8,8.4-3.8C456.7,14.3,458.1,14.5,459.3,15z M454.5,23.2c-0.8,1.3-1.2,3-1.2,5.2c0,2.5,0.4,4.3,1.3,5.4
		s1.9,1.7,3,1.7c1.1,0,2.1-0.5,2.9-1.6c0.8-1.1,1.3-2.8,1.3-5.2c0-2.5-0.4-4.3-1.3-5.5c-0.8-1.2-1.8-1.8-2.9-1.8
		C456.4,21.3,455.4,21.9,454.5,23.2z"/>
</g>
</svg>
